<?xml version="1.0" standalone="no"?>
<!DOCTYPE svg PUBLIC "-//W3C//DTD SVG 20010904//EN"
 "http://www.w3.org/TR/2001/REC-SVG-20010904/DTD/svg10.dtd">
<svg version="1.0" xmlns="http://www.w3.org/2000/svg"
 width="96.000000pt" height="96.000000pt" viewBox="0 0 96.000000 96.000000"
 preserveAspectRatio="xMidYMid meet">

<g transform="translate(0.000000,96.000000) scale(0.100000,-0.100000)"
fill="#2ACB98" stroke="none">
<path d="M180 858 c-132 -67 -132 -249 0 -316 58 -29 62 -15 16 52 -41 60 -45
96 -16 143 42 70 114 79 190 24 60 -43 75 -42 55 6 -21 50 -42 72 -90 94 -54
25 -102 24 -155 -3z"/>
<path d="M625 861 c-48 -22 -69 -44 -90 -94 -20 -48 -5 -49 55 -6 76 55 148
46 190 -24 29 -47 25 -83 -16 -143 -46 -67 -42 -81 16 -52 132 67 132 249 0
316 -53 27 -101 28 -155 3z"/>
<path d="M252 708 c-18 -18 -15 -32 22 -87 60 -89 60 -193 0 -282 -37 -55 -40
-69 -22 -87 18 -18 32 -15 87 22 89 60 193 60 283 0 55 -37 74 -40 92 -11 8
12 8 22 -1 35 -60 84 -68 107 -68 182 0 65 4 82 29 124 l28 48 -25 25 -25 25
-43 -25 c-87 -51 -186 -48 -270 9 -55 37 -69 40 -87 22z"/>
<path d="M180 418 c-132 -67 -132 -249 0 -316 53 -27 101 -28 155 -3 48 22 69
44 90 94 20 48 5 49 -61 2 -28 -20 -61 -35 -77 -35 -63 0 -127 62 -127 124 0
18 15 51 36 82 46 67 42 81 -16 52z"/>
<path d="M730 427 c0 -8 14 -33 31 -57 55 -76 46 -148 -24 -190 -47 -29 -83
-25 -143 16 -67 46 -81 42 -52 -16 67 -132 249 -132 316 0 27 53 28 101 3 155
-22 48 -44 69 -94 90 -30 12 -37 13 -37 2z"/>
</g>
</svg>
